<?xml version="1.0" encoding="utf-8"?>
<!-- Generator: Adobe Illustrator 18.1.1, SVG Export Plug-In . SVG Version: 6.00 Build 0)  -->
<svg version="1.1" id="Layer_1" xmlns="http://www.w3.org/2000/svg" xmlns:xlink="http://www.w3.org/1999/xlink" x="0px" y="0px"
	 viewBox="0 0 500 500" enable-background="new 0 0 500 500" xml:space="preserve">
<g id="Layer_1_1_">
</g>
<g id="Layer_5">
	<g id="Layer_2" display="none">
		<ellipse display="inline" fill="#FFFFFF" stroke="#000000" stroke-miterlimit="10" cx="250" cy="250" rx="136.9" ry="139"/>
		<ellipse display="inline" fill="#FFFFFF" stroke="#000000" stroke-miterlimit="10" cx="250" cy="250" rx="18.9" ry="19.2"/>
	</g>
	<g id="circles">
	</g>
	<g id="line">
		<ellipse fill="#FFFFFF" cx="257.2" cy="52.9" rx="45.1" ry="44.2"/>
		<ellipse fill="#FFFFFF" cx="400.7" cy="119.7" rx="18.3" ry="18"/>
		<ellipse fill="#FFFFFF" cx="82.6" cy="249" rx="54.7" ry="53.6"/>
		<ellipse fill="#FFFFFF" cx="272.6" cy="439.3" rx="40.5" ry="39.7"/>
		<ellipse fill="#FFFFFF" cx="441.2" cy="311.1" rx="32.7" ry="32.1"/>
		<ellipse fill="#FFFFFF" cx="257.2" cy="249.5" rx="18.3" ry="18"/>
		<path fill="#FFFFFF" d="M258.4,222.2H256c-1.5,0-2.7-0.4-2.7-0.9V106.9c0-0.5,1.2-0.9,2.7-0.9h2.4c1.5,0,2.7,0.4,2.7,0.9v114.3
			C261.1,221.8,259.9,222.2,258.4,222.2z"/>
		<path fill="#FFFFFF" d="M272.9,391.4l-2.5,0.2c-1.6,0.2-3-0.2-2.9-0.7L257.4,277c-0.2-0.5,1.2-1,2.7-1.1l2.5-0.2
			c1.6-0.2,3,0.2,2.9,0.7l9.8,113.9C275.5,390.8,274.5,391.3,272.9,391.4z"/>
		<path fill="#FFFFFF" d="M279.4,233.4l-1.8-1.9c-1.3-1.4-1.8-2.5-1.4-2.9l96.3-87c0.4-0.4,1.5,0.3,2.8,1.7l1.8,1.9
			c1.3,1.4,1.8,2.5,1.4,2.9l-96.3,87C281.7,235.2,280.4,234.4,279.4,233.4z"/>
		<path fill="#FFFFFF" d="M403.7,299.1l-0.8,2.2c-0.5,1.5-1.4,2.6-1.8,2.3l-120.1-41.3c-0.5-0.1-0.5-1.4,0.2-3l0.8-2.2
			c0.5-1.5,1.4-2.6,1.8-2.3l120.2,41C404.4,296.2,404.3,297.5,403.7,299.1z"/>
		<path fill="#FFFFFF" d="M231.1,249.4v2.9c0,1.8-0.4,3.3-0.9,3.3H145c-0.5,0-0.9-1.4-0.9-3.3v-2.9c0-1.8,0.4-3.3,0.9-3.3h85.2
			C230.6,246.2,231.1,247.6,231.1,249.4z"/>
	</g>
</g>
</svg>
