<?xml version="1.0" encoding="utf-8"?>
<!-- Generator: Adobe Illustrator 18.1.1, SVG Export Plug-In . SVG Version: 6.00 Build 0)  -->
<svg version="1.1" xmlns="http://www.w3.org/2000/svg" xmlns:xlink="http://www.w3.org/1999/xlink" x="0px" y="0px"
	 viewBox="0 0 500 500" enable-background="new 0 0 500 500" xml:space="preserve">
<g id="Layer_1">
</g>
<g id="Layer_5">
	<g id="Layer_2" display="none">
		<ellipse display="inline" fill="#FFFFFF" stroke="#000000" stroke-miterlimit="10" cx="250" cy="250" rx="136.9" ry="139"/>
		<ellipse display="inline" fill="#FFFFFF" stroke="#000000" stroke-miterlimit="10" cx="250" cy="250" rx="18.9" ry="19.2"/>
	</g>
	<g id="circles">
	</g>
	<g id="line">
		<g>
			<ellipse fill="#79C8A7" cx="257.2" cy="52.9" rx="45.1" ry="44.2"/>
			<ellipse fill="#79C8A7" cx="400.7" cy="119.7" rx="18.3" ry="18"/>
			<ellipse fill="#79C8A7" cx="82.6" cy="249" rx="54.7" ry="53.6"/>
			<ellipse fill="#79C8A7" cx="280.2" cy="446.3" rx="48.7" ry="47.7"/>
			<ellipse fill="#79C8A7" cx="441.2" cy="311.1" rx="32.7" ry="32.1"/>
			<ellipse fill="#6091CC" cx="257.2" cy="249.5" rx="18.3" ry="18"/>
			<path fill="#AADAC0" d="M257.6,222.2h-0.8c-0.5,0-0.9-0.4-0.9-0.9V106.9c0-0.5,0.4-0.9,0.9-0.9h0.8c0.5,0,0.9,0.4,0.9,0.9v114.3
				C258.5,221.8,258.1,222.2,257.6,222.2z"/>
			<path fill="#AADAC0" d="M273.3,391.3l-0.8,0.1c-0.5,0.1-1-0.3-1-0.8L258.7,277c-0.1-0.5,0.3-1,0.8-1l0.8-0.1c0.5-0.1,1,0.3,1,0.8
				l12.7,113.6C274.1,390.8,273.8,391.2,273.3,391.3z"/>
			<path fill="#AADAC0" d="M281,235l-0.6-0.5c-0.4-0.4-0.4-0.9,0-1.3l91.9-91.6c0.4-0.4,0.9-0.4,1.3,0l0.6,0.5
				c0.4,0.4,0.4,0.9,0,1.3L282.3,235C281.9,235.3,281.3,235.3,281,235z"/>
			<path fill="#AADAC0" d="M404.6,295.7l-0.2,0.7c-0.1,0.5-0.6,0.8-1.1,0.6l-122.5-33.6c-0.5-0.1-0.8-0.6-0.6-1.1l0.2-0.7
				c0.1-0.5,0.6-0.8,1.1-0.6L404,294.5C404.5,294.7,404.8,295.2,404.6,295.7z"/>
			<path fill="#AADAC0" d="M231.1,250.5v0.8c0,0.5-0.4,0.9-0.9,0.9H145c-0.5,0-0.9-0.4-0.9-0.9v-0.8c0-0.5,0.4-0.9,0.9-0.9h85.2
				C230.6,249.6,231.1,250,231.1,250.5z"/>
		</g>
	</g>
</g>
</svg>
